<?xml version="1.0" encoding="utf-8" standalone="no"?>
<!DOCTYPE svg PUBLIC "-//W3C//DTD SVG 1.1//EN"
  "http://www.w3.org/Graphics/SVG/1.1/DTD/svg11.dtd">
<svg xmlns:xlink="http://www.w3.org/1999/xlink" width="216pt" height="180pt" viewBox="0 0 216 180" xmlns="http://www.w3.org/2000/svg" version="1.1">
 <metadata>
  <rdf:RDF xmlns:dc="http://purl.org/dc/elements/1.1/" xmlns:cc="http://creativecommons.org/ns#" xmlns:rdf="http://www.w3.org/1999/02/22-rdf-syntax-ns#">
   <cc:Work>
    <dc:type rdf:resource="http://purl.org/dc/dcmitype/StillImage"/>
    <dc:date>2023-08-31T15:12:22.792156</dc:date>
    <dc:format>image/svg+xml</dc:format>
    <dc:creator>
     <cc:Agent>
      <dc:title>Matplotlib v3.7.2, https://matplotlib.org/</dc:title>
     </cc:Agent>
    </dc:creator>
   </cc:Work>
  </rdf:RDF>
 </metadata>
 <defs>
  <style type="text/css">*{stroke-linejoin: round; stroke-linecap: butt}</style>
 </defs>
 <g id="figure_1">
  <g id="patch_1">
   <path d="M 0 180 
L 216 180 
L 216 0 
L 0 0 
z
" style="fill: #ffffff"/>
  </g>
  <g id="axes_1">
   <g id="patch_2">
    <path d="M 27 157.5 
L 194.4 157.5 
L 194.4 21.6 
L 27 21.6 
z
" style="fill: #ffffff"/>
   </g>
   <g id="PathCollection_1">
    <path d="M 109.588592 87.268632 
L 107.352524 91.740768 
L 111.82466 91.740768 
L 109.588592 87.268632 
z
" clip-path="url(#p710ac9bce0)" style="fill: none; stroke: #696969"/>
    <path d="M 81.948576 93.474732 
L 79.712508 97.946868 
L 84.184644 97.946868 
L 81.948576 93.474732 
z
" clip-path="url(#p710ac9bce0)" style="fill: none; stroke: #696969"/>
    <path d="M 66.634679 97.846182 
L 64.398611 102.318318 
L 68.870747 102.318318 
L 66.634679 97.846182 
z
" clip-path="url(#p710ac9bce0)" style="fill: none; stroke: #696969"/>
    <path d="M 59.884216 113.663432 
L 57.648148 118.135568 
L 62.120284 118.135568 
L 59.884216 113.663432 
z
" clip-path="url(#p710ac9bce0)" style="fill: none; stroke: #696969"/>
    <path d="M 55.706956 128.906669 
L 53.470888 133.378805 
L 57.943024 133.378805 
L 55.706956 128.906669 
z
" clip-path="url(#p710ac9bce0)" style="fill: none; stroke: #696969"/>
   </g>
   <g id="PathCollection_2">
    <path d="M 133.458694 68.197332 
L 131.222626 72.669468 
L 135.694762 72.669468 
L 133.458694 68.197332 
z
" clip-path="url(#p710ac9bce0)" style="fill: none; stroke: #4169e1"/>
    <path d="M 97.830045 77.076132 
L 95.593977 81.548268 
L 100.066113 81.548268 
L 97.830045 77.076132 
z
" clip-path="url(#p710ac9bce0)" style="fill: none; stroke: #4169e1"/>
    <path d="M 78.090061 82.987782 
L 75.853993 87.459918 
L 80.326128 87.459918 
L 78.090061 82.987782 
z
" clip-path="url(#p710ac9bce0)" style="fill: none; stroke: #4169e1"/>
    <path d="M 69.388551 100.209332 
L 67.152483 104.681468 
L 71.624619 104.681468 
L 69.388551 100.209332 
z
" clip-path="url(#p710ac9bce0)" style="fill: none; stroke: #4169e1"/>
    <path d="M 64.003961 131.618289 
L 61.767893 136.090425 
L 66.240029 136.090425 
L 64.003961 131.618289 
z
" clip-path="url(#p710ac9bce0)" style="fill: none; stroke: #4169e1"/>
   </g>
   <g id="PathCollection_3">
    <path d="M 119.136633 79.227882 
L 116.900565 83.700018 
L 121.372701 83.700018 
L 119.136633 79.227882 
z
" clip-path="url(#p710ac9bce0)" style="fill: none; stroke: #f4a460"/>
    <path d="M 88.301164 86.475882 
L 86.065096 90.948018 
L 90.537232 90.948018 
L 88.301164 86.475882 
z
" clip-path="url(#p710ac9bce0)" style="fill: none; stroke: #f4a460"/>
    <path d="M 71.216831 91.640082 
L 68.980763 96.112218 
L 73.452899 96.112218 
L 71.216831 91.640082 
z
" clip-path="url(#p710ac9bce0)" style="fill: none; stroke: #f4a460"/>
    <path d="M 63.68595 108.114182 
L 61.449882 112.586318 
L 65.922018 112.586318 
L 63.68595 108.114182 
z
" clip-path="url(#p710ac9bce0)" style="fill: none; stroke: #f4a460"/>
    <path d="M 59.025758 130.356269 
L 56.78969 134.828405 
L 61.261826 134.828405 
L 59.025758 130.356269 
z
" clip-path="url(#p710ac9bce0)" style="fill: none; stroke: #f4a460"/>
   </g>
   <g id="PathCollection_4">
    <defs>
     <path id="C0_0_460a3e4414" d="M 0 2.236068 
C 0.593012 2.236068 1.161816 2.000462 1.581139 1.581139 
C 2.000462 1.161816 2.236068 0.593012 2.236068 -0 
C 2.236068 -0.593012 2.000462 -1.161816 1.581139 -1.581139 
C 1.161816 -2.000462 0.593012 -2.236068 0 -2.236068 
C -0.593012 -2.236068 -1.161816 -2.000462 -1.581139 -1.581139 
C -2.000462 -1.161816 -2.236068 -0.593012 -2.236068 0 
C -2.236068 0.593012 -2.000462 1.161816 -1.581139 1.581139 
C -1.161816 2.000462 -0.593012 2.236068 0 2.236068 
z
"/>
    </defs>
    <g clip-path="url(#p710ac9bce0)">
     <use xlink:href="#C0_0_460a3e4414" x="75.949253" y="82.564937" style="fill: none; stroke: #696969"/>
    </g>
    <g clip-path="url(#p710ac9bce0)">
     <use xlink:href="#C0_0_460a3e4414" x="59.567352" y="103.374234" style="fill: none; stroke: #696969"/>
    </g>
    <g clip-path="url(#p710ac9bce0)">
     <use xlink:href="#C0_0_460a3e4414" x="50.490992" y="114.315162" style="fill: none; stroke: #696969"/>
    </g>
    <g clip-path="url(#p710ac9bce0)">
     <use xlink:href="#C0_0_460a3e4414" x="46.490075" y="129.84435" style="fill: none; stroke: #696969"/>
    </g>
    <g clip-path="url(#p710ac9bce0)">
     <use xlink:href="#C0_0_460a3e4414" x="44.014263" y="112.952441" style="fill: none; stroke: #696969"/>
    </g>
   </g>
   <g id="PathCollection_5">
    <defs>
     <path id="C1_0_6d59e0ae7c" d="M 0 2.236068 
C 0.593012 2.236068 1.161816 2.000462 1.581139 1.581139 
C 2.000462 1.161816 2.236068 0.593012 2.236068 -0 
C 2.236068 -0.593012 2.000462 -1.161816 1.581139 -1.581139 
C 1.161816 -2.000462 0.593012 -2.236068 0 -2.236068 
C -0.593012 -2.236068 -1.161816 -2.000462 -1.581139 -1.581139 
C -2.000462 -1.161816 -2.236068 -0.593012 -2.236068 0 
C -2.236068 0.593012 -2.000462 1.161816 -1.581139 1.581139 
C -1.161816 2.000462 -0.593012 2.236068 0 2.236068 
z
"/>
    </defs>
    <g clip-path="url(#p710ac9bce0)">
     <use xlink:href="#C1_0_6d59e0ae7c" x="184.495874" y="104.895867" style="fill: none; stroke: #4169e1"/>
    </g>
    <g clip-path="url(#p710ac9bce0)">
     <use xlink:href="#C1_0_6d59e0ae7c" x="131.786555" y="108.427946" style="fill: none; stroke: #4169e1"/>
    </g>
    <g clip-path="url(#p710ac9bce0)">
     <use xlink:href="#C1_0_6d59e0ae7c" x="102.583059" y="97.453108" style="fill: none; stroke: #4169e1"/>
    </g>
    <g clip-path="url(#p710ac9bce0)">
     <use xlink:href="#C1_0_6d59e0ae7c" x="89.709973" y="97.299536" style="fill: none; stroke: #4169e1"/>
    </g>
    <g clip-path="url(#p710ac9bce0)">
     <use xlink:href="#C1_0_6d59e0ae7c" x="81.743966" y="121.253474" style="fill: none; stroke: #4169e1"/>
    </g>
   </g>
   <g id="PathCollection_6">
    <defs>
     <path id="C2_0_5d8213e69b" d="M 0 2.236068 
C 0.593012 2.236068 1.161816 2.000462 1.581139 1.581139 
C 2.000462 1.161816 2.236068 0.593012 2.236068 -0 
C 2.236068 -0.593012 2.000462 -1.161816 1.581139 -1.581139 
C 1.161816 -2.000462 0.593012 -2.236068 0 -2.236068 
C -0.593012 -2.236068 -1.161816 -2.000462 -1.581139 -1.581139 
C -2.000462 -1.161816 -2.236068 -0.593012 -2.236068 0 
C -2.236068 0.593012 -2.000462 1.161816 -1.581139 1.581139 
C -1.161816 2.000462 -0.593012 2.236068 0 2.236068 
z
"/>
    </defs>
    <g clip-path="url(#p710ac9bce0)">
     <use xlink:href="#C2_0_5d8213e69b" x="94.972888" y="97.287437" style="fill: none; stroke: #f4a460"/>
    </g>
    <g clip-path="url(#p710ac9bce0)">
     <use xlink:href="#C2_0_5d8213e69b" x="72.224326" y="120.690435" style="fill: none; stroke: #f4a460"/>
    </g>
    <g clip-path="url(#p710ac9bce0)">
     <use xlink:href="#C2_0_5d8213e69b" x="59.620529" y="129.921012" style="fill: none; stroke: #f4a460"/>
    </g>
    <g clip-path="url(#p710ac9bce0)">
     <use xlink:href="#C2_0_5d8213e69b" x="54.064696" y="142.340679" style="fill: none; stroke: #f4a460"/>
    </g>
    <g clip-path="url(#p710ac9bce0)">
     <use xlink:href="#C2_0_5d8213e69b" x="50.626686" y="123.009041" style="fill: none; stroke: #f4a460"/>
    </g>
   </g>
   <g id="PathCollection_7">
    <path d="M 106.663571 64.243668 
L 111.135707 64.243668 
L 111.135707 59.771532 
L 106.663571 59.771532 
L 106.663571 64.243668 
z
" clip-path="url(#p710ac9bce0)" style="fill: none; stroke: #696969"/>
    <path d="M 79.254128 84.531891 
L 83.726264 84.531891 
L 83.726264 80.059755 
L 79.254128 80.059755 
L 79.254128 84.531891 
z
" clip-path="url(#p710ac9bce0)" style="fill: none; stroke: #696969"/>
    <path d="M 64.067979 110.313156 
L 68.540115 110.313156 
L 68.540115 105.84102 
L 64.067979 105.84102 
L 64.067979 110.313156 
z
" clip-path="url(#p710ac9bce0)" style="fill: none; stroke: #696969"/>
    <path d="M 57.373829 108.793571 
L 61.845965 108.793571 
L 61.845965 104.321435 
L 57.373829 104.321435 
L 57.373829 108.793571 
z
" clip-path="url(#p710ac9bce0)" style="fill: none; stroke: #696969"/>
    <path d="M 53.231415 135.135651 
L 57.703551 135.135651 
L 57.703551 130.663515 
L 53.231415 130.663515 
L 53.231415 135.135651 
z
" clip-path="url(#p710ac9bce0)" style="fill: none; stroke: #696969"/>
   </g>
   <g id="PathCollection_8">
    <path d="M 144.122229 39.623118 
L 148.594365 39.623118 
L 148.594365 35.150982 
L 144.122229 35.150982 
L 144.122229 39.623118 
z
" clip-path="url(#p710ac9bce0)" style="fill: none; stroke: #4169e1"/>
    <path d="M 104.176455 59.888691 
L 108.648591 59.888691 
L 108.648591 55.416555 
L 104.176455 55.416555 
L 104.176455 59.888691 
z
" clip-path="url(#p710ac9bce0)" style="fill: none; stroke: #4169e1"/>
    <path d="M 82.044576 87.799056 
L 86.516712 87.799056 
L 86.516712 83.32692 
L 82.044576 83.32692 
L 82.044576 87.799056 
z
" clip-path="url(#p710ac9bce0)" style="fill: none; stroke: #4169e1"/>
    <path d="M 72.288705 88.091471 
L 76.760841 88.091471 
L 76.760841 83.619335 
L 72.288705 83.619335 
L 72.288705 88.091471 
z
" clip-path="url(#p710ac9bce0)" style="fill: none; stroke: #4169e1"/>
    <path d="M 66.251664 117.048368 
L 70.7238 117.048368 
L 70.7238 112.576232 
L 66.251664 112.576232 
L 66.251664 117.048368 
z
" clip-path="url(#p710ac9bce0)" style="fill: none; stroke: #4169e1"/>
   </g>
   <g id="PathCollection_9">
    <path d="M 124.094828 51.219918 
L 128.566964 51.219918 
L 128.566964 46.747782 
L 124.094828 46.747782 
L 124.094828 51.219918 
z
" clip-path="url(#p710ac9bce0)" style="fill: none; stroke: #f4a460"/>
    <path d="M 90.851647 72.006441 
L 95.323783 72.006441 
L 95.323783 67.534305 
L 90.851647 67.534305 
L 90.851647 72.006441 
z
" clip-path="url(#p710ac9bce0)" style="fill: none; stroke: #f4a460"/>
    <path d="M 72.433326 99.327906 
L 76.905462 99.327906 
L 76.905462 94.85577 
L 72.433326 94.85577 
L 72.433326 99.327906 
z
" clip-path="url(#p710ac9bce0)" style="fill: none; stroke: #f4a460"/>
    <path d="M 64.314414 98.736971 
L 68.78655 98.736971 
L 68.78655 94.264835 
L 64.314414 94.264835 
L 64.314414 98.736971 
z
" clip-path="url(#p710ac9bce0)" style="fill: none; stroke: #f4a460"/>
    <path d="M 59.290343 126.606668 
L 63.762478 126.606668 
L 63.762478 122.134532 
L 59.290343 122.134532 
L 59.290343 126.606668 
z
" clip-path="url(#p710ac9bce0)" style="fill: none; stroke: #f4a460"/>
   </g>
   <g id="PathCollection_10">
    <path d="M 67.476894 132.304478 
L 70.639172 129.1422 
L 67.476894 125.979922 
L 64.314616 129.1422 
L 67.476894 132.304478 
z
" clip-path="url(#p710ac9bce0)" style="fill: none; stroke: #696969"/>
    <path d="M 56.196183 132.145928 
L 59.358461 128.98365 
L 56.196183 125.821372 
L 53.033905 128.98365 
L 56.196183 132.145928 
z
" clip-path="url(#p710ac9bce0)" style="fill: none; stroke: #696969"/>
    <path d="M 51.223574 114.714819 
L 54.385852 111.552541 
L 51.223574 108.390264 
L 48.061297 111.552541 
L 51.223574 114.714819 
z
" clip-path="url(#p710ac9bce0)" style="fill: none; stroke: #696969"/>
    <path d="M 48.14647 111.391558 
L 51.308747 108.229281 
L 48.14647 105.067003 
L 44.984192 108.229281 
L 48.14647 111.391558 
z
" clip-path="url(#p710ac9bce0)" style="fill: none; stroke: #696969"/>
   </g>
   <g id="PathCollection_11">
    <path d="M 92.118115 119.258078 
L 95.280392 116.0958 
L 92.118115 112.933522 
L 88.955837 116.0958 
L 92.118115 119.258078 
z
" clip-path="url(#p710ac9bce0)" style="fill: none; stroke: #4169e1"/>
    <path d="M 73.970017 109.037762 
L 77.132295 105.875484 
L 73.970017 102.713207 
L 70.807739 105.875484 
L 73.970017 109.037762 
z
" clip-path="url(#p710ac9bce0)" style="fill: none; stroke: #4169e1"/>
    <path d="M 65.970221 134.542408 
L 69.132499 131.38013 
L 65.970221 128.217853 
L 62.807943 131.38013 
L 65.970221 134.542408 
z
" clip-path="url(#p710ac9bce0)" style="fill: none; stroke: #4169e1"/>
    <path d="M 61.019859 132.433408 
L 64.182137 129.271131 
L 61.019859 126.108853 
L 57.857582 129.271131 
L 61.019859 132.433408 
z
" clip-path="url(#p710ac9bce0)" style="fill: none; stroke: #4169e1"/>
   </g>
   <g id="PathCollection_12">
    <path d="M 73.088261 137.015678 
L 76.250539 133.8534 
L 73.088261 130.691122 
L 69.925983 133.8534 
L 73.088261 137.015678 
z
" clip-path="url(#p710ac9bce0)" style="fill: none; stroke: #f4a460"/>
    <path d="M 60.24369 127.791962 
L 63.405967 124.629684 
L 60.24369 121.467407 
L 57.081412 124.629684 
L 60.24369 127.791962 
z
" clip-path="url(#p710ac9bce0)" style="fill: none; stroke: #f4a460"/>
    <path d="M 54.581722 120.241419 
L 57.743999 117.079141 
L 54.581722 113.916864 
L 51.419444 117.079141 
L 54.581722 120.241419 
z
" clip-path="url(#p710ac9bce0)" style="fill: none; stroke: #f4a460"/>
    <path d="M 51.078034 116.510458 
L 54.240311 113.348181 
L 51.078034 110.185903 
L 47.915756 113.348181 
L 51.078034 116.510458 
z
" clip-path="url(#p710ac9bce0)" style="fill: none; stroke: #f4a460"/>
   </g>
   <g id="matplotlib.axis_1">
    <g id="xtick_1">
     <g id="line2d_1">
      <defs>
       <path id="m8307efac43" d="M 0 0 
L 0 3.5 
" style="stroke: #000000; stroke-width: 0.8"/>
      </defs>
      <g>
       <use xlink:href="#m8307efac43" x="27" y="157.5" style="stroke: #000000; stroke-width: 0.8"/>
      </g>
     </g>
     <g id="text_1">
      <!-- 0 -->
      <g transform="translate(23.81875 172.098437) scale(0.1 -0.1)">
       <defs>
        <path id="DejaVuSans-30" d="M 2034 4250 
Q 1547 4250 1301 3770 
Q 1056 3291 1056 2328 
Q 1056 1369 1301 889 
Q 1547 409 2034 409 
Q 2525 409 2770 889 
Q 3016 1369 3016 2328 
Q 3016 3291 2770 3770 
Q 2525 4250 2034 4250 
z
M 2034 4750 
Q 2819 4750 3233 4129 
Q 3647 3509 3647 2328 
Q 3647 1150 3233 529 
Q 2819 -91 2034 -91 
Q 1250 -91 836 529 
Q 422 1150 422 2328 
Q 422 3509 836 4129 
Q 1250 4750 2034 4750 
z
" transform="scale(0.015625)"/>
       </defs>
       <use xlink:href="#DejaVuSans-30"/>
      </g>
     </g>
    </g>
    <g id="xtick_2">
     <g id="line2d_2">
      <g>
       <use xlink:href="#m8307efac43" x="68.85" y="157.5" style="stroke: #000000; stroke-width: 0.8"/>
      </g>
     </g>
     <g id="text_2">
      <!-- 1 -->
      <g transform="translate(65.66875 172.098437) scale(0.1 -0.1)">
       <defs>
        <path id="DejaVuSans-31" d="M 794 531 
L 1825 531 
L 1825 4091 
L 703 3866 
L 703 4441 
L 1819 4666 
L 2450 4666 
L 2450 531 
L 3481 531 
L 3481 0 
L 794 0 
L 794 531 
z
" transform="scale(0.015625)"/>
       </defs>
       <use xlink:href="#DejaVuSans-31"/>
      </g>
     </g>
    </g>
    <g id="xtick_3">
     <g id="line2d_3">
      <g>
       <use xlink:href="#m8307efac43" x="110.7" y="157.5" style="stroke: #000000; stroke-width: 0.8"/>
      </g>
     </g>
     <g id="text_3">
      <!-- 2 -->
      <g transform="translate(107.51875 172.098437) scale(0.1 -0.1)">
       <defs>
        <path id="DejaVuSans-32" d="M 1228 531 
L 3431 531 
L 3431 0 
L 469 0 
L 469 531 
Q 828 903 1448 1529 
Q 2069 2156 2228 2338 
Q 2531 2678 2651 2914 
Q 2772 3150 2772 3378 
Q 2772 3750 2511 3984 
Q 2250 4219 1831 4219 
Q 1534 4219 1204 4116 
Q 875 4013 500 3803 
L 500 4441 
Q 881 4594 1212 4672 
Q 1544 4750 1819 4750 
Q 2544 4750 2975 4387 
Q 3406 4025 3406 3419 
Q 3406 3131 3298 2873 
Q 3191 2616 2906 2266 
Q 2828 2175 2409 1742 
Q 1991 1309 1228 531 
z
" transform="scale(0.015625)"/>
       </defs>
       <use xlink:href="#DejaVuSans-32"/>
      </g>
     </g>
    </g>
    <g id="xtick_4">
     <g id="line2d_4">
      <g>
       <use xlink:href="#m8307efac43" x="152.55" y="157.5" style="stroke: #000000; stroke-width: 0.8"/>
      </g>
     </g>
     <g id="text_4">
      <!-- 3 -->
      <g transform="translate(149.36875 172.098437) scale(0.1 -0.1)">
       <defs>
        <path id="DejaVuSans-33" d="M 2597 2516 
Q 3050 2419 3304 2112 
Q 3559 1806 3559 1356 
Q 3559 666 3084 287 
Q 2609 -91 1734 -91 
Q 1441 -91 1130 -33 
Q 819 25 488 141 
L 488 750 
Q 750 597 1062 519 
Q 1375 441 1716 441 
Q 2309 441 2620 675 
Q 2931 909 2931 1356 
Q 2931 1769 2642 2001 
Q 2353 2234 1838 2234 
L 1294 2234 
L 1294 2753 
L 1863 2753 
Q 2328 2753 2575 2939 
Q 2822 3125 2822 3475 
Q 2822 3834 2567 4026 
Q 2313 4219 1838 4219 
Q 1578 4219 1281 4162 
Q 984 4106 628 3988 
L 628 4550 
Q 988 4650 1302 4700 
Q 1616 4750 1894 4750 
Q 2613 4750 3031 4423 
Q 3450 4097 3450 3541 
Q 3450 3153 3228 2886 
Q 3006 2619 2597 2516 
z
" transform="scale(0.015625)"/>
       </defs>
       <use xlink:href="#DejaVuSans-33"/>
      </g>
     </g>
    </g>
    <g id="xtick_5">
     <g id="line2d_5">
      <g>
       <use xlink:href="#m8307efac43" x="194.4" y="157.5" style="stroke: #000000; stroke-width: 0.8"/>
      </g>
     </g>
     <g id="text_5">
      <!-- 4 -->
      <g transform="translate(191.21875 172.098437) scale(0.1 -0.1)">
       <defs>
        <path id="DejaVuSans-34" d="M 2419 4116 
L 825 1625 
L 2419 1625 
L 2419 4116 
z
M 2253 4666 
L 3047 4666 
L 3047 1625 
L 3713 1625 
L 3713 1100 
L 3047 1100 
L 3047 0 
L 2419 0 
L 2419 1100 
L 313 1100 
L 313 1709 
L 2253 4666 
z
" transform="scale(0.015625)"/>
       </defs>
       <use xlink:href="#DejaVuSans-34"/>
      </g>
     </g>
    </g>
    <g id="text_6">
     <!-- $\it{β}$ (-) -->
     <g transform="translate(100.2 185.878125) scale(0.1 -0.1)">
      <defs>
       <path id="DejaVuSans-Oblique-3b2" d="M 872 216 
L 572 -1331 
L -6 -1331 
L 928 3478 
Q 1206 4903 2538 4903 
Q 3888 4903 3659 3700 
Q 3503 2844 2894 2531 
Q 3713 2250 3553 1416 
Q 3272 -69 1759 -66 
Q 1097 -63 872 216 
z
M 1019 966 
Q 1259 422 1875 425 
Q 2775 425 2966 1406 
Q 3138 2288 1675 2219 
L 1778 2750 
Q 2909 2731 3106 3750 
Q 3241 4438 2509 4434 
Q 1691 4434 1503 3459 
L 1019 966 
z
" transform="scale(0.015625)"/>
       <path id="DejaVuSans-20" transform="scale(0.015625)"/>
       <path id="DejaVuSans-28" d="M 1984 4856 
Q 1566 4138 1362 3434 
Q 1159 2731 1159 2009 
Q 1159 1288 1364 580 
Q 1569 -128 1984 -844 
L 1484 -844 
Q 1016 -109 783 600 
Q 550 1309 550 2009 
Q 550 2706 781 3412 
Q 1013 4119 1484 4856 
L 1984 4856 
z
" transform="scale(0.015625)"/>
       <path id="DejaVuSans-2d" d="M 313 2009 
L 1997 2009 
L 1997 1497 
L 313 1497 
L 313 2009 
z
" transform="scale(0.015625)"/>
       <path id="DejaVuSans-29" d="M 513 4856 
L 1013 4856 
Q 1481 4119 1714 3412 
Q 1947 2706 1947 2009 
Q 1947 1309 1714 600 
Q 1481 -109 1013 -844 
L 513 -844 
Q 928 -128 1133 580 
Q 1338 1288 1338 2009 
Q 1338 2731 1133 3434 
Q 928 4138 513 4856 
z
" transform="scale(0.015625)"/>
      </defs>
      <use xlink:href="#DejaVuSans-Oblique-3b2" transform="translate(0 0.390625)"/>
      <use xlink:href="#DejaVuSans-20" transform="translate(63.818359 0.390625)"/>
      <use xlink:href="#DejaVuSans-28" transform="translate(95.605469 0.390625)"/>
      <use xlink:href="#DejaVuSans-2d" transform="translate(134.619141 0.390625)"/>
      <use xlink:href="#DejaVuSans-29" transform="translate(170.703125 0.390625)"/>
     </g>
    </g>
   </g>
   <g id="matplotlib.axis_2">
    <g id="ytick_1">
     <g id="line2d_6">
      <defs>
       <path id="m933f3c7497" d="M 0 0 
L -3.5 0 
" style="stroke: #000000; stroke-width: 0.8"/>
      </defs>
      <g>
       <use xlink:href="#m933f3c7497" x="27" y="157.5" style="stroke: #000000; stroke-width: 0.8"/>
      </g>
     </g>
     <g id="text_7">
      <!-- 0.0 -->
      <g transform="translate(4.096875 161.299219) scale(0.1 -0.1)">
       <defs>
        <path id="DejaVuSans-2e" d="M 684 794 
L 1344 794 
L 1344 0 
L 684 0 
L 684 794 
z
" transform="scale(0.015625)"/>
       </defs>
       <use xlink:href="#DejaVuSans-30"/>
       <use xlink:href="#DejaVuSans-2e" x="63.623047"/>
       <use xlink:href="#DejaVuSans-30" x="95.410156"/>
      </g>
     </g>
    </g>
    <g id="ytick_2">
     <g id="line2d_7">
      <g>
       <use xlink:href="#m933f3c7497" x="27" y="134.85" style="stroke: #000000; stroke-width: 0.8"/>
      </g>
     </g>
     <g id="text_8">
      <!-- 0.1 -->
      <g transform="translate(4.096875 138.649219) scale(0.1 -0.1)">
       <use xlink:href="#DejaVuSans-30"/>
       <use xlink:href="#DejaVuSans-2e" x="63.623047"/>
       <use xlink:href="#DejaVuSans-31" x="95.410156"/>
      </g>
     </g>
    </g>
    <g id="ytick_3">
     <g id="line2d_8">
      <g>
       <use xlink:href="#m933f3c7497" x="27" y="112.2" style="stroke: #000000; stroke-width: 0.8"/>
      </g>
     </g>
     <g id="text_9">
      <!-- 0.2 -->
      <g transform="translate(4.096875 115.999219) scale(0.1 -0.1)">
       <use xlink:href="#DejaVuSans-30"/>
       <use xlink:href="#DejaVuSans-2e" x="63.623047"/>
       <use xlink:href="#DejaVuSans-32" x="95.410156"/>
      </g>
     </g>
    </g>
    <g id="ytick_4">
     <g id="line2d_9">
      <g>
       <use xlink:href="#m933f3c7497" x="27" y="89.55" style="stroke: #000000; stroke-width: 0.8"/>
      </g>
     </g>
     <g id="text_10">
      <!-- 0.3 -->
      <g transform="translate(4.096875 93.349219) scale(0.1 -0.1)">
       <use xlink:href="#DejaVuSans-30"/>
       <use xlink:href="#DejaVuSans-2e" x="63.623047"/>
       <use xlink:href="#DejaVuSans-33" x="95.410156"/>
      </g>
     </g>
    </g>
    <g id="ytick_5">
     <g id="line2d_10">
      <g>
       <use xlink:href="#m933f3c7497" x="27" y="66.9" style="stroke: #000000; stroke-width: 0.8"/>
      </g>
     </g>
     <g id="text_11">
      <!-- 0.4 -->
      <g transform="translate(4.096875 70.699219) scale(0.1 -0.1)">
       <use xlink:href="#DejaVuSans-30"/>
       <use xlink:href="#DejaVuSans-2e" x="63.623047"/>
       <use xlink:href="#DejaVuSans-34" x="95.410156"/>
      </g>
     </g>
    </g>
    <g id="ytick_6">
     <g id="line2d_11">
      <g>
       <use xlink:href="#m933f3c7497" x="27" y="44.25" style="stroke: #000000; stroke-width: 0.8"/>
      </g>
     </g>
     <g id="text_12">
      <!-- 0.5 -->
      <g transform="translate(4.096875 48.049219) scale(0.1 -0.1)">
       <defs>
        <path id="DejaVuSans-35" d="M 691 4666 
L 3169 4666 
L 3169 4134 
L 1269 4134 
L 1269 2991 
Q 1406 3038 1543 3061 
Q 1681 3084 1819 3084 
Q 2600 3084 3056 2656 
Q 3513 2228 3513 1497 
Q 3513 744 3044 326 
Q 2575 -91 1722 -91 
Q 1428 -91 1123 -41 
Q 819 9 494 109 
L 494 744 
Q 775 591 1075 516 
Q 1375 441 1709 441 
Q 2250 441 2565 725 
Q 2881 1009 2881 1497 
Q 2881 1984 2565 2268 
Q 2250 2553 1709 2553 
Q 1456 2553 1204 2497 
Q 953 2441 691 2322 
L 691 4666 
z
" transform="scale(0.015625)"/>
       </defs>
       <use xlink:href="#DejaVuSans-30"/>
       <use xlink:href="#DejaVuSans-2e" x="63.623047"/>
       <use xlink:href="#DejaVuSans-35" x="95.410156"/>
      </g>
     </g>
    </g>
    <g id="ytick_7">
     <g id="line2d_12">
      <g>
       <use xlink:href="#m933f3c7497" x="27" y="21.6" style="stroke: #000000; stroke-width: 0.8"/>
      </g>
     </g>
     <g id="text_13">
      <!-- 0.6 -->
      <g transform="translate(4.096875 25.399219) scale(0.1 -0.1)">
       <defs>
        <path id="DejaVuSans-36" d="M 2113 2584 
Q 1688 2584 1439 2293 
Q 1191 2003 1191 1497 
Q 1191 994 1439 701 
Q 1688 409 2113 409 
Q 2538 409 2786 701 
Q 3034 994 3034 1497 
Q 3034 2003 2786 2293 
Q 2538 2584 2113 2584 
z
M 3366 4563 
L 3366 3988 
Q 3128 4100 2886 4159 
Q 2644 4219 2406 4219 
Q 1781 4219 1451 3797 
Q 1122 3375 1075 2522 
Q 1259 2794 1537 2939 
Q 1816 3084 2150 3084 
Q 2853 3084 3261 2657 
Q 3669 2231 3669 1497 
Q 3669 778 3244 343 
Q 2819 -91 2113 -91 
Q 1303 -91 875 529 
Q 447 1150 447 2328 
Q 447 3434 972 4092 
Q 1497 4750 2381 4750 
Q 2619 4750 2861 4703 
Q 3103 4656 3366 4563 
z
" transform="scale(0.015625)"/>
       </defs>
       <use xlink:href="#DejaVuSans-30"/>
       <use xlink:href="#DejaVuSans-2e" x="63.623047"/>
       <use xlink:href="#DejaVuSans-36" x="95.410156"/>
      </g>
     </g>
    </g>
    <g id="text_14">
     <!-- ΑΜΕ (-) -->
     <g transform="translate(-1.982813 107.738281) rotate(-90) scale(0.1 -0.1)">
      <defs>
       <path id="DejaVuSans-391" d="M 2188 4044 
L 1331 1722 
L 3047 1722 
L 2188 4044 
z
M 1831 4666 
L 2547 4666 
L 4325 0 
L 3669 0 
L 3244 1197 
L 1141 1197 
L 716 0 
L 50 0 
L 1831 4666 
z
" transform="scale(0.015625)"/>
       <path id="DejaVuSans-39c" d="M 628 4666 
L 1569 4666 
L 2759 1491 
L 3956 4666 
L 4897 4666 
L 4897 0 
L 4281 0 
L 4281 4097 
L 3078 897 
L 2444 897 
L 1241 4097 
L 1241 0 
L 628 0 
L 628 4666 
z
" transform="scale(0.015625)"/>
       <path id="DejaVuSans-395" d="M 628 4666 
L 3578 4666 
L 3578 4134 
L 1259 4134 
L 1259 2753 
L 3481 2753 
L 3481 2222 
L 1259 2222 
L 1259 531 
L 3634 531 
L 3634 0 
L 628 0 
L 628 4666 
z
" transform="scale(0.015625)"/>
      </defs>
      <use xlink:href="#DejaVuSans-391"/>
      <use xlink:href="#DejaVuSans-39c" x="68.408203"/>
      <use xlink:href="#DejaVuSans-395" x="154.6875"/>
      <use xlink:href="#DejaVuSans-20" x="217.871094"/>
      <use xlink:href="#DejaVuSans-28" x="249.658203"/>
      <use xlink:href="#DejaVuSans-2d" x="288.671875"/>
      <use xlink:href="#DejaVuSans-29" x="324.755859"/>
     </g>
    </g>
   </g>
   <g id="patch_3">
    <path d="M 27 157.5 
L 27 21.6 
" style="fill: none; stroke: #000000; stroke-width: 0.8; stroke-linejoin: miter; stroke-linecap: square"/>
   </g>
   <g id="patch_4">
    <path d="M 27 157.5 
L 194.4 157.5 
" style="fill: none; stroke: #000000; stroke-width: 0.8; stroke-linejoin: miter; stroke-linecap: square"/>
   </g>
  </g>
 </g>
 <defs>
  <clipPath id="p710ac9bce0">
   <rect x="27" y="21.6" width="167.4" height="135.9"/>
  </clipPath>
 </defs>
</svg>
